<svg width="111" height="87" viewBox="0 0 111 87" fill="none" xmlns="http://www.w3.org/2000/svg">
<g filter="url(#filter0_d_510_19670)">
<path d="M54.5418 2.83173C55.1548 2.34285 56.0244 2.34285 56.6375 2.83173L59.5273 5.1363C59.9532 5.47587 60.5171 5.58805 61.0405 5.43727L64.5923 4.41403C65.3457 4.19696 66.1492 4.52976 66.5285 5.21603L68.3164 8.45107C68.5799 8.92775 69.058 9.2472 69.5992 9.30819L73.2722 9.72204C74.0514 9.80984 74.6663 10.4248 74.7541 11.2039L75.1679 14.877C75.2289 15.4182 75.5484 15.8963 76.0251 16.1597L79.2601 17.9477C79.9464 18.327 80.2792 19.1304 80.0621 19.8839L79.0388 23.4357C78.8881 23.959 79.0003 24.523 79.3398 24.9488L81.6444 27.8386C82.1333 28.4517 82.1333 29.3213 81.6444 29.9344L79.3398 32.8242C79.0003 33.25 78.8881 33.814 79.0388 34.3373L80.0621 37.8891C80.2792 38.6426 79.9464 39.446 79.2601 39.8253L76.0251 41.6133C75.5484 41.8767 75.2289 42.3548 75.1679 42.896L74.7541 46.569C74.6663 47.3482 74.0514 47.9632 73.2722 48.051L69.5992 48.4648C69.058 48.5258 68.5799 48.8453 68.3164 49.3219L66.5285 52.557C66.1492 53.2432 65.3457 53.576 64.5923 53.359L61.0405 52.3357C60.5171 52.185 59.9532 52.2971 59.5273 52.6367L56.6375 54.9413C56.0244 55.4301 55.1548 55.4301 54.5418 54.9413L51.6519 52.6367C51.2261 52.2971 50.6621 52.185 50.1388 52.3357L46.587 53.359C45.8335 53.576 45.0301 53.2432 44.6508 52.557L42.8628 49.3219C42.5994 48.8453 42.1213 48.5258 41.5801 48.4648L37.9071 48.051C37.1279 47.9632 36.513 47.3482 36.4252 46.569L36.0113 42.896C35.9503 42.3548 35.6309 41.8767 35.1542 41.6133L31.9192 39.8253C31.2329 39.446 30.9001 38.6426 31.1172 37.8891L32.1404 34.3373C32.2912 33.814 32.179 33.25 31.8394 32.8242L29.5349 29.9344C29.046 29.3213 29.046 28.4517 29.5349 27.8386L31.8394 24.9488C32.179 24.523 32.2912 23.959 32.1404 23.4357L31.1172 19.8839C30.9001 19.1304 31.2329 18.327 31.9192 17.9477L35.1542 16.1597C35.6309 15.8963 35.9503 15.4182 36.0113 14.877L36.4252 11.2039C36.513 10.4248 37.1279 9.80984 37.9071 9.72204L41.5801 9.30819C42.1213 9.2472 42.5994 8.92775 42.8628 8.45107L44.6508 5.21603C45.0301 4.52976 45.8335 4.19697 46.587 4.41403L50.1388 5.43727C50.6621 5.58805 51.2261 5.47587 51.6519 5.1363L54.5418 2.83173Z" fill="url(#paint0_linear_510_19670)"/>
<g filter="url(#filter1_d_510_19670)">
<path d="M55.5922 49.8932C67.1946 49.8932 76.6003 40.4876 76.6003 28.8851C76.6003 17.2826 67.1946 7.87695 55.5922 7.87695C43.9897 7.87695 34.584 17.2826 34.584 28.8851C34.584 40.4876 43.9897 49.8932 55.5922 49.8932Z" fill="url(#paint1_linear_510_19670)"/>
<path opacity="0.18" d="M55.5927 47.3727C65.8028 47.3727 74.0798 39.0958 74.0798 28.8856C74.0798 18.6754 65.8028 10.3984 55.5927 10.3984C45.3825 10.3984 37.1055 18.6754 37.1055 28.8856C37.1055 39.0958 45.3825 47.3727 55.5927 47.3727Z" fill="url(#paint2_radial_510_19670)" fill-opacity="0.5"/>
</g>
<path d="M73.2371 28.825C73.2371 29.5482 73.1957 30.2715 73.113 30.974C73.0302 31.7592 72.8647 32.5445 72.6785 33.2883C72.5958 33.619 72.513 33.9289 72.4096 34.2595C72.2234 34.8381 72.0165 35.4167 71.7682 35.9746C71.2304 37.1938 70.5683 38.3303 69.7822 39.3841C69.1202 40.2726 68.3754 41.0992 67.5479 41.8637C64.424 44.7566 60.2451 46.5131 55.6524 46.5337C51.0596 46.5544 46.86 44.8186 43.7154 41.9464C42.9086 41.2025 42.1639 40.3966 41.5018 39.5288C40.2606 37.8963 39.3089 36.0366 38.709 34.0529C38.4193 33.123 38.2125 32.1518 38.0883 31.16C38.0056 30.4368 37.9435 29.7135 37.9435 28.9903C37.9021 19.1958 45.7635 11.2816 55.5282 11.2403C65.2722 11.2196 73.1957 19.0718 73.2371 28.825Z" fill="#FCFCFC"/>
<g filter="url(#filter2_d_510_19670)">
<path d="M70.5185 26.5611L64.1978 32.0774L66.0912 40.2902C66.1914 40.7196 66.1628 41.1689 66.009 41.5821C65.8552 41.9953 65.583 42.354 65.2265 42.6133C64.8699 42.8726 64.4448 43.0211 64.0044 43.0402C63.5639 43.0592 63.1276 42.948 62.75 42.7204L55.5869 38.3758L48.4393 42.7204C48.0617 42.948 47.6254 43.0592 47.1849 43.0402C46.7444 43.0211 46.3193 42.8726 45.9628 42.6133C45.6063 42.354 45.3341 41.9953 45.1803 41.5821C45.0265 41.1689 44.9979 40.7196 45.0981 40.2902L46.9887 32.0859L40.6665 26.5611C40.3322 26.2727 40.0904 25.892 39.9715 25.4668C39.8526 25.0415 39.8619 24.5906 39.9983 24.1706C40.1346 23.7506 40.3919 23.3802 40.738 23.1059C41.084 22.8316 41.5033 22.6655 41.9433 22.6285L50.2766 21.9067L53.5295 14.148C53.6994 13.7409 53.9859 13.3932 54.353 13.1486C54.7201 12.904 55.1514 12.7734 55.5925 12.7734C56.0337 12.7734 56.4649 12.904 56.832 13.1486C57.1991 13.3932 57.4857 13.7409 57.6555 14.148L60.9182 21.9067L69.2488 22.6285C69.6888 22.6655 70.1081 22.8316 70.4541 23.1059C70.8001 23.3802 71.0575 23.7506 71.1938 24.1706C71.3302 24.5906 71.3395 25.0415 71.2206 25.4668C71.1017 25.892 70.8599 26.2727 70.5255 26.5611H70.5185Z" fill="url(#paint3_linear_510_19670)"/>
<path d="M68.0799 26.7132L62.7827 31.3362L64.3695 38.219C64.4535 38.5788 64.4295 38.9554 64.3006 39.3017C64.1717 39.648 63.9436 39.9486 63.6448 40.1659C63.346 40.3832 62.9898 40.5077 62.6206 40.5236C62.2515 40.5396 61.8859 40.4464 61.5694 40.2557L55.5663 36.6146L49.5761 40.2557C49.2596 40.4464 48.894 40.5396 48.5248 40.5236C48.1557 40.5077 47.7995 40.3832 47.5007 40.1659C47.2019 39.9486 46.9738 39.648 46.8449 39.3017C46.716 38.9554 46.692 38.5788 46.776 38.219L48.3604 31.3432L43.0621 26.7132C42.7818 26.4715 42.5792 26.1524 42.4795 25.796C42.3799 25.4396 42.3877 25.0617 42.502 24.7097C42.6163 24.3578 42.8319 24.0474 43.1219 23.8175C43.4119 23.5875 43.7633 23.4484 44.1321 23.4174L51.1159 22.8125L53.842 16.3102C53.9844 15.969 54.2245 15.6776 54.5322 15.4726C54.8399 15.2676 55.2013 15.1582 55.571 15.1582C55.9407 15.1582 56.3021 15.2676 56.6098 15.4726C56.9174 15.6776 57.1576 15.969 57.2999 16.3102L60.0343 22.8125L67.0158 23.4174C67.3845 23.4484 67.7359 23.5875 68.0259 23.8175C68.3159 24.0474 68.5316 24.3578 68.6458 24.7097C68.7601 25.0617 68.7679 25.4396 68.6683 25.796C68.5687 26.1524 68.366 26.4715 68.0858 26.7132H68.0799Z" fill="url(#paint4_linear_510_19670)"/>
<path d="M53.6562 30.3064L51.5664 28.1951C51.4538 28.0812 51.3011 28.0171 51.1418 28.0171C50.9825 28.0171 50.8297 28.0812 50.7172 28.1951C50.4823 28.4324 50.4823 28.8157 50.7172 29.053L53.2346 31.5963C53.4695 31.8336 53.8489 31.8336 54.0838 31.5963L60.4557 25.1589C60.6905 24.9216 60.6905 24.5383 60.4557 24.301C60.3431 24.1871 60.1904 24.123 60.0311 24.123C59.8718 24.123 59.719 24.1871 59.6065 24.301L53.6562 30.3064Z" fill="white" stroke="#FDFDFD" stroke-width="0.41344"/>
</g>
</g>
<g filter="url(#filter3_d_510_19670)">
<rect x="4.38281" y="55.7812" width="102.413" height="23.0589" rx="10.1473" fill="#F0B64A" shape-rendering="crispEdges"/>
<path d="M19.3134 65.2663C19.3467 64.3754 19.6381 63.6885 20.1876 63.2056C20.7371 62.7227 21.4823 62.4813 22.4231 62.4813C23.0476 62.4813 23.5804 62.5895 24.0217 62.806C24.4713 63.0224 24.8085 63.318 25.0333 63.6927C25.2665 64.0674 25.383 64.4878 25.383 64.9541C25.383 65.5036 25.2456 65.9532 24.9709 66.3029C24.6961 66.6443 24.3756 66.8774 24.0092 67.0023V67.0522C24.4838 67.2104 24.8585 67.4727 25.1332 67.839C25.408 68.2054 25.5454 68.6758 25.5454 69.2503C25.5454 69.7665 25.4246 70.2244 25.1832 70.6241C24.9501 71.0154 24.6045 71.3235 24.1466 71.5483C23.697 71.7731 23.16 71.8855 22.5355 71.8855C21.5364 71.8855 20.7371 71.6399 20.1376 71.1486C19.5465 70.6574 19.2343 69.9164 19.201 68.9256H21.2741C21.2825 69.2919 21.3865 69.5833 21.5864 69.7998C21.7862 70.008 22.0776 70.112 22.4606 70.112C22.7853 70.112 23.0351 70.0205 23.2099 69.8373C23.3931 69.6458 23.4847 69.396 23.4847 69.0879C23.4847 68.6883 23.3556 68.401 23.0975 68.2262C22.8477 68.043 22.4439 67.9514 21.8861 67.9514H21.4864V66.2155H21.8861C22.3107 66.2155 22.6521 66.1447 22.9102 66.0032C23.1766 65.8533 23.3098 65.591 23.3098 65.2163C23.3098 64.9166 23.2266 64.6835 23.0601 64.517C22.8935 64.3504 22.6646 64.2672 22.3732 64.2672C22.0568 64.2672 21.8195 64.3629 21.6613 64.5544C21.5114 64.7459 21.424 64.9832 21.399 65.2663H19.3134ZM26.8613 70.187V68.4635L30.8079 62.8185H33.1933V68.3386H34.2174V70.187H33.1933V71.8105H31.0576V70.187H26.8613ZM31.2075 65.1664L29.1094 68.3386H31.2075V65.1664ZM40.2453 59.946L36.8982 74.146H34.8375L38.1846 59.946H40.2453ZM40.9949 70.187V68.4635L44.9415 62.8185H47.3269V68.3386H48.351V70.187H47.3269V71.8105H45.1912V70.187H40.9949ZM45.3411 65.1664L43.243 68.3386H45.3411V65.1664ZM55.8276 64.5544H51.931V66.2779C52.0976 66.0947 52.3307 65.9449 52.6304 65.8283C52.9302 65.7117 53.2549 65.6535 53.6046 65.6535C54.229 65.6535 54.7452 65.795 55.1532 66.0781C55.5695 66.3612 55.8734 66.7275 56.0649 67.1771C56.2564 67.6267 56.3521 68.1138 56.3521 68.6383C56.3521 69.6125 56.0774 70.3868 55.5279 70.9613C54.9784 71.5275 54.204 71.8105 53.2049 71.8105C52.5388 71.8105 51.9602 71.6981 51.4689 71.4733C50.9777 71.2402 50.5989 70.9197 50.3324 70.5117C50.066 70.1037 49.9203 69.6333 49.8953 69.1004H51.981C52.0309 69.3585 52.1517 69.575 52.3432 69.7499C52.5347 69.9164 52.7969 69.9996 53.13 69.9996C53.5213 69.9996 53.8127 69.8747 54.0042 69.625C54.1957 69.3752 54.2915 69.0421 54.2915 68.6258C54.2915 68.2179 54.1915 67.9056 53.9917 67.6892C53.7919 67.4727 53.5005 67.3645 53.1175 67.3645C52.8344 67.3645 52.6013 67.4352 52.4181 67.5768C52.2349 67.71 52.1142 67.889 52.0559 68.1138H49.9952V62.6811H55.8276V64.5544ZM63.2474 71.9105C62.6396 71.9105 62.0984 71.8064 61.6238 71.5982C61.1492 71.3901 60.7746 71.107 60.4998 70.749C60.225 70.3826 60.071 69.9747 60.0377 69.5251H62.1483C62.1733 69.7665 62.2857 69.9622 62.4856 70.112C62.6854 70.2619 62.931 70.3368 63.2224 70.3368C63.4888 70.3368 63.6928 70.2869 63.8344 70.187C63.9842 70.0787 64.0592 69.9414 64.0592 69.7748C64.0592 69.575 63.9551 69.4293 63.7469 69.3377C63.5388 69.2378 63.2016 69.1296 62.7353 69.013C62.2358 68.8964 61.8195 68.7757 61.4864 68.6508C61.1534 68.5176 60.8661 68.3136 60.6247 68.0389C60.3832 67.7558 60.2625 67.3769 60.2625 66.9024C60.2625 66.5027 60.3707 66.1405 60.5872 65.8158C60.812 65.4828 61.1367 65.2205 61.5614 65.029C61.9943 64.8375 62.5064 64.7418 63.0975 64.7418C63.9717 64.7418 64.6586 64.9582 65.1582 65.3912C65.6661 65.8241 65.9575 66.3986 66.0324 67.1147H64.0592C64.0259 66.8732 63.9176 66.6817 63.7345 66.5402C63.5596 66.3986 63.3265 66.3279 63.0351 66.3279C62.7853 66.3279 62.5938 66.3778 62.4606 66.4777C62.3274 66.5693 62.2608 66.6984 62.2608 66.8649C62.2608 67.0647 62.3648 67.2146 62.573 67.3145C62.7895 67.4144 63.1225 67.5143 63.5721 67.6142C64.0883 67.7475 64.5088 67.8807 64.8335 68.0139C65.1582 68.1388 65.4413 68.3469 65.6827 68.6383C65.9325 68.9214 66.0616 69.3044 66.0699 69.7873C66.0699 70.1953 65.9533 70.5616 65.7202 70.8864C65.4954 71.2027 65.1665 71.4525 64.7336 71.6357C64.3089 71.8189 63.8136 71.9105 63.2474 71.9105ZM71.2718 69.9996V71.8105H70.1852C69.4109 71.8105 68.8073 71.6232 68.3743 71.2485C67.9414 70.8655 67.7249 70.2453 67.7249 69.3877V66.6151H66.8757V64.8417H67.7249V63.1432H69.8605V64.8417H71.2593V66.6151H69.8605V69.4127C69.8605 69.6208 69.9105 69.7707 70.0104 69.8623C70.1103 69.9538 70.2768 69.9996 70.51 69.9996H71.2718ZM72.048 68.3136C72.048 67.5976 72.1812 66.969 72.4476 66.4278C72.7224 65.8866 73.0929 65.4703 73.5592 65.1789C74.0254 64.8875 74.5458 64.7418 75.1203 64.7418C75.6115 64.7418 76.0403 64.8417 76.4066 65.0415C76.7813 65.2413 77.0686 65.5036 77.2684 65.8283V64.8417H79.404V71.8105H77.2684V70.8239C77.0602 71.1486 76.7688 71.4109 76.3942 71.6107C76.0278 71.8105 75.599 71.9105 75.1078 71.9105C74.5416 71.9105 74.0254 71.7648 73.5592 71.4733C73.0929 71.1736 72.7224 70.7531 72.4476 70.212C72.1812 69.6624 72.048 69.0297 72.048 68.3136ZM77.2684 68.3261C77.2684 67.7932 77.1185 67.3728 76.8188 67.0647C76.5274 66.7567 76.1694 66.6026 75.7447 66.6026C75.3201 66.6026 74.9579 66.7567 74.6582 67.0647C74.3668 67.3645 74.2211 67.7808 74.2211 68.3136C74.2211 68.8465 74.3668 69.2711 74.6582 69.5875C74.9579 69.8956 75.3201 70.0496 75.7447 70.0496C76.1694 70.0496 76.5274 69.8956 76.8188 69.5875C77.1185 69.2794 77.2684 68.859 77.2684 68.3261ZM83.0959 66.0032C83.3457 65.6202 83.6579 65.3204 84.0326 65.1039C84.4072 64.8791 84.8235 64.7667 85.2815 64.7667V67.0273H84.6945C84.1616 67.0273 83.762 67.1438 83.4955 67.3769C83.2291 67.6017 83.0959 68.0014 83.0959 68.5759V71.8105H80.9603V64.8417H83.0959V66.0032ZM89.1485 71.9105C88.5407 71.9105 87.9995 71.8064 87.5249 71.5982C87.0504 71.3901 86.6757 71.107 86.4009 70.749C86.1262 70.3826 85.9721 69.9747 85.9388 69.5251H88.0495C88.0745 69.7665 88.1869 69.9622 88.3867 70.112C88.5865 70.2619 88.8321 70.3368 89.1235 70.3368C89.39 70.3368 89.594 70.2869 89.7355 70.187C89.8854 70.0787 89.9603 69.9414 89.9603 69.7748C89.9603 69.575 89.8562 69.4293 89.6481 69.3377C89.4399 69.2378 89.1027 69.1296 88.6365 69.013C88.1369 68.8964 87.7206 68.7757 87.3876 68.6508C87.0545 68.5176 86.7673 68.3136 86.5258 68.0389C86.2844 67.7558 86.1636 67.3769 86.1636 66.9024C86.1636 66.5027 86.2719 66.1405 86.4883 65.8158C86.7132 65.4828 87.0379 65.2205 87.4625 65.029C87.8954 64.8375 88.4075 64.7418 88.9986 64.7418C89.8729 64.7418 90.5598 64.9582 91.0593 65.3912C91.5672 65.8241 91.8586 66.3986 91.9336 67.1147H89.9603C89.927 66.8732 89.8188 66.6817 89.6356 66.5402C89.4607 66.3986 89.2276 66.3279 88.9362 66.3279C88.6864 66.3279 88.4949 66.3778 88.3617 66.4777C88.2285 66.5693 88.1619 66.6984 88.1619 66.8649C88.1619 67.0647 88.266 67.2146 88.4741 67.3145C88.6906 67.4144 89.0236 67.5143 89.4732 67.6142C89.9894 67.7475 90.4099 67.8807 90.7346 68.0139C91.0593 68.1388 91.3424 68.3469 91.5839 68.6383C91.8336 68.9214 91.9627 69.3044 91.971 69.7873C91.971 70.1953 91.8545 70.5616 91.6213 70.8864C91.3965 71.2027 91.0677 71.4525 90.6347 71.6357C90.2101 71.8189 89.7147 71.9105 89.1485 71.9105Z" fill="white"/>
</g>
<defs>
<filter id="filter0_d_510_19670" x="20.296" y="0.31935" width="70.5878" height="70.5878" filterUnits="userSpaceOnUse" color-interpolation-filters="sRGB">
<feFlood flood-opacity="0" result="BackgroundImageFix"/>
<feColorMatrix in="SourceAlpha" type="matrix" values="0 0 0 0 0 0 0 0 0 0 0 0 0 0 0 0 0 0 127 0" result="hardAlpha"/>
<feOffset dy="6.7226"/>
<feGaussianBlur stdDeviation="4.20163"/>
<feColorMatrix type="matrix" values="0 0 0 0 0.917647 0 0 0 0 0.690196 0 0 0 0 0.12549 0 0 0 0.25 0"/>
<feBlend mode="normal" in2="BackgroundImageFix" result="effect1_dropShadow_510_19670"/>
<feBlend mode="normal" in="SourceGraphic" in2="effect1_dropShadow_510_19670" result="shape"/>
</filter>
<filter id="filter1_d_510_19670" x="29.542" y="5.35598" width="52.0995" height="52.0995" filterUnits="userSpaceOnUse" color-interpolation-filters="sRGB">
<feFlood flood-opacity="0" result="BackgroundImageFix"/>
<feColorMatrix in="SourceAlpha" type="matrix" values="0 0 0 0 0 0 0 0 0 0 0 0 0 0 0 0 0 0 127 0" result="hardAlpha"/>
<feOffset dy="2.52098"/>
<feGaussianBlur stdDeviation="2.52098"/>
<feColorMatrix type="matrix" values="0 0 0 0 0.00392157 0 0 0 0 0.0196078 0 0 0 0 0.2 0 0 0 0.08 0"/>
<feBlend mode="normal" in2="BackgroundImageFix" result="effect1_dropShadow_510_19670"/>
<feBlend mode="normal" in="SourceGraphic" in2="effect1_dropShadow_510_19670" result="shape"/>
</filter>
<filter id="filter2_d_510_19670" x="29.5344" y="9.322" width="52.1227" height="50.9781" filterUnits="userSpaceOnUse" color-interpolation-filters="sRGB">
<feFlood flood-opacity="0" result="BackgroundImageFix"/>
<feColorMatrix in="SourceAlpha" type="matrix" values="0 0 0 0 0 0 0 0 0 0 0 0 0 0 0 0 0 0 127 0" result="hardAlpha"/>
<feOffset dy="6.90287"/>
<feGaussianBlur stdDeviation="5.17715"/>
<feComposite in2="hardAlpha" operator="out"/>
<feColorMatrix type="matrix" values="0 0 0 0 0.917647 0 0 0 0 0.690196 0 0 0 0 0.12549 0 0 0 0.25 0"/>
<feBlend mode="normal" in2="BackgroundImageFix" result="effect1_dropShadow_510_19670"/>
<feBlend mode="normal" in="SourceGraphic" in2="effect1_dropShadow_510_19670" result="shape"/>
</filter>
<filter id="filter3_d_510_19670" x="0.323883" y="55.7812" width="110.53" height="31.1765" filterUnits="userSpaceOnUse" color-interpolation-filters="sRGB">
<feFlood flood-opacity="0" result="BackgroundImageFix"/>
<feColorMatrix in="SourceAlpha" type="matrix" values="0 0 0 0 0 0 0 0 0 0 0 0 0 0 0 0 0 0 127 0" result="hardAlpha"/>
<feOffset dy="4.05893"/>
<feGaussianBlur stdDeviation="2.02946"/>
<feComposite in2="hardAlpha" operator="out"/>
<feColorMatrix type="matrix" values="0 0 0 0 0.917647 0 0 0 0 0.690196 0 0 0 0 0.12549 0 0 0 0.25 0"/>
<feBlend mode="normal" in2="BackgroundImageFix" result="effect1_dropShadow_510_19670"/>
<feBlend mode="normal" in="SourceGraphic" in2="effect1_dropShadow_510_19670" result="shape"/>
</filter>
<linearGradient id="paint0_linear_510_19670" x1="28.6701" y1="28.8777" x2="82.4916" y2="28.8777" gradientUnits="userSpaceOnUse">
<stop stop-color="#FFFCA8"/>
<stop offset="0.3123" stop-color="#FDB836"/>
<stop offset="0.7592" stop-color="#FDC966"/>
<stop offset="1" stop-color="#F1DC83"/>
</linearGradient>
<linearGradient id="paint1_linear_510_19670" x1="34.5612" y1="28.8782" x2="76.6094" y2="28.8782" gradientUnits="userSpaceOnUse">
<stop stop-color="#FFFCA8"/>
<stop offset="0.3123" stop-color="#FDB836"/>
<stop offset="0.7592" stop-color="#FDC966"/>
<stop offset="1" stop-color="#F1DC83"/>
</linearGradient>
<radialGradient id="paint2_radial_510_19670" cx="0" cy="0" r="1" gradientUnits="userSpaceOnUse" gradientTransform="translate(55.5834 28.8763) scale(18.4782 18.4781)">
<stop stop-color="white" stop-opacity="0"/>
<stop offset="1" stop-color="#571600"/>
</radialGradient>
<linearGradient id="paint3_linear_510_19670" x1="72.4736" y1="44.7978" x2="45.9852" y2="19.9912" gradientUnits="userSpaceOnUse">
<stop stop-color="#FED96D"/>
<stop offset="0.9999" stop-color="#FEDA71"/>
<stop offset="1" stop-color="#FDDF90"/>
</linearGradient>
<linearGradient id="paint4_linear_510_19670" x1="56.8456" y1="33.0274" x2="29.8667" y2="6.81926" gradientUnits="userSpaceOnUse">
<stop stop-color="#FDB836"/>
<stop offset="1" stop-color="#F2CE73"/>
</linearGradient>
</defs>
</svg>
