<svg width="22" height="19" viewBox="0 0 22 19" fill="none" xmlns="http://www.w3.org/2000/svg">
<path d="M20.2203 14.8253L17.5947 13.3089C17.5516 13.2842 17.504 13.2683 17.4547 13.262C17.4054 13.2556 17.3553 13.2591 17.3073 13.2722C17.2594 13.2852 17.2144 13.3076 17.1751 13.338C17.1358 13.3684 17.1028 13.4062 17.0782 13.4494L16.6045 14.2706C16.4997 14.4515 16.5616 14.6848 16.7425 14.7895L19.3681 16.3059C19.4113 16.3306 19.4588 16.3465 19.5081 16.3528C19.5574 16.3592 19.6075 16.3557 19.6555 16.3426C19.7035 16.3296 19.7484 16.3072 19.7877 16.2768C19.827 16.2464 19.86 16.2086 19.8847 16.1654L20.3584 15.3442C20.4631 15.1633 20.3988 14.93 20.2203 14.8253ZM17.0758 5.45116C17.1005 5.4943 17.1334 5.53216 17.1727 5.56257C17.2121 5.59297 17.257 5.61534 17.305 5.62838C17.3529 5.64142 17.403 5.64488 17.4523 5.63857C17.5016 5.63227 17.5492 5.61631 17.5923 5.59161L20.2179 4.07528C20.3988 3.97054 20.4607 3.73726 20.356 3.55635L19.8847 2.73748C19.86 2.69434 19.827 2.65649 19.7877 2.62608C19.7484 2.59567 19.7035 2.57331 19.6555 2.56027C19.6075 2.54723 19.5574 2.54376 19.5081 2.55007C19.4588 2.55638 19.4113 2.57234 19.3681 2.59704L16.7425 4.11336C16.6556 4.16404 16.5922 4.24709 16.5664 4.34433C16.5405 4.44158 16.5542 4.54512 16.6045 4.6323L17.0758 5.45116ZM21.2177 8.59332H18.1708C17.9613 8.59332 17.7899 8.76471 17.7899 8.97418V9.92635C17.7899 10.1358 17.9613 10.3072 18.1708 10.3072H21.2177C21.4272 10.3072 21.5986 10.1358 21.5986 9.92635V8.97418C21.5986 8.76471 21.4272 8.59332 21.2177 8.59332ZM13.8836 0C13.7432 0 13.6004 0.0380868 13.4694 0.126162L5.03085 5.64159H1.12696C0.917484 5.64159 0.746094 5.81298 0.746094 6.02246V12.8781C0.746094 13.0875 0.917484 13.2589 1.12696 13.2589H5.03085L13.4694 18.7744C13.6004 18.8601 13.7456 18.9005 13.8836 18.9005C14.2812 18.9005 14.6477 18.5839 14.6477 18.1364V0.764115C14.6477 0.316596 14.2812 0 13.8836 0Z" fill="white"/>
</svg>
