<svg width="23" height="23" viewBox="0 0 23 23" fill="none" xmlns="http://www.w3.org/2000/svg">
<path d="M11.615 16.1288C11.615 16.2553 11.7128 16.3588 11.8306 16.3588H17.1494C17.2673 16.3588 17.365 16.2553 17.365 16.1288V14.7488C17.365 14.6223 17.2673 14.5188 17.1494 14.5188H11.8306C11.7128 14.5188 11.615 14.6223 11.615 14.7488V16.1288ZM6.01163 16.3041L11.5316 11.6754C11.6409 11.5834 11.6409 11.4137 11.5316 11.3217L6.01163 6.69587C5.9783 6.66754 5.93755 6.64936 5.8942 6.64349C5.85085 6.63763 5.80673 6.64433 5.76708 6.66279C5.72742 6.68126 5.6939 6.71071 5.67049 6.74766C5.64708 6.78462 5.63476 6.82751 5.635 6.87125V8.67388C5.635 8.74288 5.66375 8.80612 5.71837 8.84925L8.87513 11.5L5.71837 14.1508C5.69268 14.1723 5.67192 14.1991 5.65754 14.2293C5.64315 14.2596 5.63546 14.2926 5.635 14.3261V16.1288C5.635 16.3243 5.86213 16.4306 6.01163 16.3041ZM22.08 0H0.92C0.411125 0 0 0.411125 0 0.92V22.08C0 22.5889 0.411125 23 0.92 23H22.08C22.5889 23 23 22.5889 23 22.08V0.92C23 0.411125 22.5889 0 22.08 0ZM20.93 20.93H2.07V2.07H20.93V20.93Z" fill="white"/>
</svg>
