<svg width="16" height="19" viewBox="0 0 16 19" fill="none" xmlns="http://www.w3.org/2000/svg">
<path d="M5.28394 9.35917C5.15317 9.30492 5.00925 9.29067 4.87038 9.31822C4.73151 9.34577 4.60393 9.41388 4.50378 9.51395L2.56682 11.4518H0.715738C0.525913 11.4518 0.343862 11.5272 0.209635 11.6614C0.075408 11.7957 0 11.9777 0 12.1675V15.7462C0 15.9361 0.075408 16.1181 0.209635 16.2523C0.343862 16.3866 0.525913 16.462 0.715738 16.462H2.56682L4.50378 18.3998C4.60388 18.5001 4.73146 18.5683 4.87038 18.596C5.00929 18.6236 5.15329 18.6095 5.28414 18.5552C5.415 18.501 5.52682 18.4092 5.60546 18.2914C5.6841 18.1736 5.72602 18.0351 5.7259 17.8935V10.0203C5.72588 9.87878 5.68387 9.7404 5.6052 9.62272C5.52653 9.50503 5.41473 9.41332 5.28394 9.35917ZM4.29443 16.1658L3.36934 15.2399C3.30282 15.1734 3.22386 15.1207 3.13697 15.0848C3.05009 15.0489 2.95697 15.0304 2.86295 15.0305H1.43148V12.8833H2.86295C2.95697 12.8834 3.05009 12.8649 3.13697 12.829C3.22386 12.7931 3.30282 12.7404 3.36934 12.6739L4.29443 11.7479V16.1658ZM10.0203 13.9569C10.0196 14.5882 9.85415 15.2084 9.54034 15.7561C9.22652 16.3039 8.77521 16.7603 8.23099 17.0802C8.06802 17.1613 7.88025 17.1773 7.70591 17.1249C7.53157 17.0725 7.38375 16.9556 7.29254 16.7981C7.20134 16.6405 7.1736 16.4541 7.21497 16.2768C7.25635 16.0995 7.36372 15.9447 7.51525 15.8438C7.84338 15.6501 8.11533 15.3742 8.30426 15.0433C8.49318 14.7124 8.59255 14.3379 8.59255 13.9569C8.59255 13.5759 8.49318 13.2014 8.30426 12.8705C8.11533 12.5396 7.84338 12.2637 7.51525 12.07C7.36372 11.9691 7.25635 11.8143 7.21497 11.637C7.1736 11.4597 7.20134 11.2733 7.29254 11.1157C7.38375 10.9582 7.53157 10.8413 7.70591 10.7889C7.88025 10.7365 8.06802 10.7525 8.23099 10.8336C8.77521 11.1535 9.22652 11.6099 9.54034 12.1577C9.85415 12.7054 10.0196 13.3256 10.0203 13.9569ZM15.5369 5.21952L10.5267 0.209354C10.4602 0.142909 10.3812 0.0902202 10.2944 0.0542987C10.2075 0.0183772 10.1144 -7.37109e-05 10.0203 2.21305e-07H1.43148C1.05183 2.21305e-07 0.687723 0.150816 0.41927 0.41927C0.150816 0.687724 0 1.05183 0 1.43148V8.58886C0 8.77868 0.075408 8.96073 0.209635 9.09496C0.343862 9.22919 0.525913 9.3046 0.715738 9.3046C0.905564 9.3046 1.08761 9.22919 1.22184 9.09496C1.35607 8.96073 1.43148 8.77868 1.43148 8.58886V1.43148H9.3046V5.72591C9.3046 5.91573 9.38 6.09778 9.51423 6.23201C9.64846 6.36624 9.83051 6.44164 10.0203 6.44164H14.3148V17.1777H11.4518C11.262 17.1777 11.0799 17.2531 10.9457 17.3874C10.8115 17.5216 10.7361 17.7036 10.7361 17.8935C10.7361 18.0833 10.8115 18.2653 10.9457 18.3996C11.0799 18.5338 11.262 18.6092 11.4518 18.6092H14.3148C14.6944 18.6092 15.0585 18.4584 15.327 18.1899C15.5954 17.9215 15.7462 17.5574 15.7462 17.1777V5.72591C15.7463 5.63189 15.7279 5.53877 15.6919 5.45189C15.656 5.365 15.6033 5.28604 15.5369 5.21952ZM10.7361 2.44335L13.3029 5.01017H10.7361V2.44335Z" fill="white"/>
</svg>
