<svg width="47" height="49" viewBox="0 0 47 49" fill="none" xmlns="http://www.w3.org/2000/svg">
<path d="M45.2083 9.625H2M40.9714 15.9792L39.8022 33.5167C39.3523 40.2623 39.1287 43.635 36.9301 45.6913C34.7316 47.75 31.3486 47.75 24.5878 47.75H22.6205C15.8597 47.75 12.4767 47.75 10.2782 45.6913C8.07967 43.635 7.85346 40.2623 7.40612 33.5167L6.23696 15.9792" stroke="#9745F6" stroke-width="2.07955" stroke-linecap="round"/>
<path d="M9.625 9.625H9.90458C10.9275 9.59886 11.9187 9.26465 12.7485 8.66606C13.5784 8.06747 14.2083 7.23238 14.5558 6.27L14.6422 6.00821L14.8888 5.26858C15.0997 4.63571 15.2065 4.32054 15.3463 4.05112C15.6213 3.52345 16.016 3.06748 16.4989 2.7197C16.9817 2.37191 17.5392 2.14198 18.1269 2.04829C18.4243 2 18.7572 2 19.4231 2H27.7852C28.4511 2 28.7841 2 29.0815 2.04829C29.6691 2.14198 30.2266 2.37191 30.7095 2.7197C31.1923 3.06748 31.587 3.52345 31.862 4.05112C32.0018 4.32054 32.1086 4.63571 32.3195 5.26858L32.5661 6.00821C32.8882 7.07894 33.5543 8.01361 34.4613 8.66746C35.3684 9.32131 36.4657 9.65786 37.5833 9.625" stroke="#9745F6" stroke-width="2.07955"/>
</svg>
