<svg width="17" height="19" viewBox="0 0 17 19" fill="none" xmlns="http://www.w3.org/2000/svg">
<path d="M16.5499 9.42621C16.5505 9.6724 16.4874 9.91454 16.3667 10.1291C16.246 10.3437 16.0718 10.5233 15.8611 10.6507L2.80281 18.639C2.58265 18.7738 2.3305 18.8474 2.07239 18.8522C1.81427 18.857 1.55957 18.7927 1.33457 18.6662C1.11171 18.5416 0.926066 18.3599 0.796722 18.1397C0.667379 17.9196 0.599005 17.669 0.598633 17.4136V1.43879C0.599005 1.18346 0.667379 0.932845 0.796722 0.712706C0.926066 0.492567 1.11171 0.310852 1.33457 0.186249C1.55957 0.0596793 1.81427 -0.00453119 2.07239 0.000248647C2.3305 0.00502848 2.58265 0.0786254 2.80281 0.213438L15.8611 8.20177C16.0718 8.32909 16.246 8.50876 16.3667 8.72332C16.4874 8.93789 16.5505 9.18003 16.5499 9.42621Z" fill="white"/>
</svg>
