<svg width="206" height="69" viewBox="0 0 206 69" fill="none" xmlns="http://www.w3.org/2000/svg">
<rect width="206" height="69" rx="5" fill="#17FB99"/>
<path d="M98.0591 44.9844V25.0487H106.688C108.473 25.0487 110.011 25.3429 111.302 25.9315C112.593 26.5011 113.59 27.327 114.292 28.4092C114.995 29.4915 115.346 30.7825 115.346 32.2825C115.346 33.7634 114.995 35.045 114.292 36.1272C113.59 37.2094 112.593 38.0448 111.302 38.6334C110.011 39.203 108.473 39.4878 106.688 39.4878H100.622L102.673 37.4088V44.9844H98.0591ZM102.673 37.9214L100.622 35.7285H106.432C107.856 35.7285 108.919 35.4247 109.622 34.8172C110.324 34.2096 110.676 33.3647 110.676 32.2825C110.676 31.1813 110.324 30.3269 109.622 29.7193C108.919 29.1117 107.856 28.808 106.432 28.808H100.622L102.673 26.615V37.9214ZM118.605 44.9844V23.8525H123.048V44.9844H118.605ZM136.569 44.9844V41.994L136.285 41.339V35.9848C136.285 35.0355 135.99 34.295 135.402 33.7634C134.832 33.2318 133.949 32.966 132.753 32.966C131.937 32.966 131.13 33.0989 130.332 33.3647C129.554 33.6115 128.889 33.9533 128.339 34.39L126.744 31.2857C127.579 30.6971 128.586 30.2414 129.763 29.9187C130.94 29.5959 132.136 29.4345 133.351 29.4345C135.686 29.4345 137.5 29.9851 138.791 31.0863C140.082 32.1875 140.727 33.9058 140.727 36.2411V44.9844H136.569ZM131.899 45.2122C130.703 45.2122 129.677 45.0129 128.823 44.6141C127.968 44.1964 127.313 43.6363 126.858 42.9338C126.402 42.2313 126.174 41.4434 126.174 40.57C126.174 39.6587 126.393 38.8613 126.829 38.1777C127.285 37.4942 127.997 36.9626 128.965 36.5829C129.934 36.1842 131.196 35.9848 132.753 35.9848H136.826V38.5765H133.237C132.193 38.5765 131.471 38.7473 131.073 39.0891C130.693 39.4309 130.503 39.858 130.503 40.3707C130.503 40.9403 130.722 41.3959 131.158 41.7377C131.614 42.0605 132.231 42.2219 133.009 42.2219C133.75 42.2219 134.414 42.051 135.003 41.7092C135.592 41.3485 136.019 40.8264 136.285 40.1428L136.968 42.1934C136.645 43.1807 136.057 43.9306 135.202 44.4433C134.348 44.9559 133.247 45.2122 131.899 45.2122ZM146.407 50.7373C145.609 50.7373 144.821 50.6138 144.043 50.367C143.265 50.1202 142.629 49.7784 142.135 49.3418L143.758 46.1805C144.1 46.4843 144.489 46.7216 144.926 46.8925C145.382 47.0634 145.828 47.1488 146.264 47.1488C146.891 47.1488 147.385 46.9969 147.745 46.6932C148.125 46.4084 148.467 45.9242 148.771 45.2407L149.568 43.361L149.91 42.8769L155.406 29.6623H159.678L152.758 45.9242C152.264 47.1583 151.695 48.1266 151.049 48.8291C150.422 49.5316 149.72 50.0253 148.941 50.3101C148.182 50.5949 147.337 50.7373 146.407 50.7373ZM149.027 45.5824L142.192 29.6623H146.777L152.074 42.4782L149.027 45.5824Z" fill="#161A1E"/>
<path d="M77.5977 33.4455C78.8282 34.3336 78.8282 36.1658 77.5977 37.0539L56.9251 51.9731C55.4536 53.035 53.398 51.9836 53.398 50.1689V20.3305C53.398 18.5158 55.4535 17.4643 56.9251 18.5263L77.5977 33.4455Z" fill="#161A1E"/>
</svg>
