<svg width="79" height="70" viewBox="0 0 79 70" fill="none" xmlns="http://www.w3.org/2000/svg">
<rect width="78.3189" height="69.419" rx="5" fill="#FCD731"/>
<path d="M54.3175 36.5385C53.9477 39.3584 52.8173 42.0245 51.0474 44.2508C49.2776 46.477 46.9351 48.1796 44.2712 49.1757C41.6073 50.1718 38.7225 50.4241 35.9261 49.9053C33.1298 49.3865 30.5274 48.1163 28.3981 46.2309C26.2688 44.3455 24.6929 41.9161 23.8393 39.2031C22.9858 36.4902 22.8869 33.596 23.5532 30.8311C24.2195 28.0662 25.6259 25.5348 27.6215 23.5085C29.6171 21.4821 32.1267 20.0372 34.8811 19.3287C42.5166 17.3704 50.4204 21.3007 53.3384 28.6249" stroke="#161A1E" stroke-width="3.91667" stroke-linecap="round" stroke-linejoin="round"/>
<path d="M54.4479 18.834V28.6257H44.6562" stroke="black" stroke-width="3.91667" stroke-linecap="round" stroke-linejoin="round"/>
</svg>
