<svg width="18" height="18" viewBox="0 0 18 18" fill="none" xmlns="http://www.w3.org/2000/svg">
<path d="M5.14286 15.4286H1.28571C0.576 15.4286 0 14.8513 0 14.1429V10.2857C0 9.57729 0.576 9 1.28571 9H5.14286V6.42857C5.14286 5.72014 5.71886 5.14286 6.42857 5.14286H10.2857V1.28571C10.2857 0.577286 10.8617 0 11.5714 0H15.4286C16.1383 0 16.7143 0.577286 16.7143 1.28571V6.42857H15.4286V1.28571H11.5714V5.14286C11.5714 5.85129 10.9954 6.42857 10.2857 6.42857H6.42857V9C6.42857 9.70843 5.85257 10.2857 5.14286 10.2857H1.28571V14.1429H5.14286V15.4286ZM18 14.7857V9C18 8.29157 17.424 7.71429 16.7143 7.71429H12.8571C12.1474 7.71429 11.5714 8.29157 11.5714 9V11.5714H7.71429C7.00457 11.5714 6.42857 12.1487 6.42857 12.8571V16.7143C6.42857 17.4227 7.00457 18 7.71429 18H14.7857C16.5587 18 18 16.5574 18 14.7857ZM11.5714 12.8571C12.2811 12.8571 12.8571 12.2799 12.8571 11.5714V9H16.7143V14.7857C16.7143 15.849 15.849 16.7143 14.7857 16.7143H7.71429V12.8571H11.5714Z" fill="#9745F6"/>
</svg>
